<?xml version="1.0" encoding="utf-8"?>
<svg viewBox="0 0 500 500" xmlns="http://www.w3.org/2000/svg">
  <path style="fill: none; stroke: rgb(0, 0, 0);" d="M 123.183 66.284 C 116.75 62.739 112.999 50.54 99.12 62.799 C 92.417 68.719 90.433 78.143 96.738 82.917 C 105.016 89.184 116.985 87.805 125.201 93.691 C 146.552 108.988 115.4 118.901 102.434 118.259 C 42.201 115.28 145.062 119.966 85.492 111.328"/>
  <path style="fill: none; stroke: rgb(0, 0, 0);" d="M 134.325 71.471 C 134.037 80.402 131.976 98.257 134.897 106.553 C 138.278 116.155 150.625 119.488 153.994 107.68"/>
  <path style="fill: rgb(216, 216, 216); stroke: rgb(0, 0, 0);" d="M 144.856 84.765 C 133.254 84.765 121.653 84.765 110.051 84.765"/>
  <path style="fill: none; stroke: rgb(0, 0, 0);" d="M 147.648 98.671 C 149.164 98.671 155.457 99.686 156.911 98.582 C 160.702 95.707 149.64 87.369 147.91 97.102 C 147.633 98.657 147.307 100.107 147.307 101.69 C 147.307 103.542 146.966 105.8 147.465 107.586 C 149.97 116.569 162.943 117.43 168.341 110.827"/>
  <path style="fill: none; stroke: rgb(0, 0, 0);" d="M 158.979 95.248 C 163.838 100.044 165.808 103.635 169.449 109.027 C 170.703 110.884 172.939 117 172.939 114.768 C 172.939 105.199 172.939 95.63 172.939 86.062"/>
  <path style="fill: none; stroke: rgb(0, 0, 0);" d="M 175.532 99.175 C 177.048 99.175 183.341 100.189 184.795 99.086 C 188.586 96.211 177.524 87.873 175.794 97.606 C 175.517 99.161 175.191 100.611 175.191 102.194 C 175.191 104.046 174.85 106.303 175.349 108.09 C 177.854 117.073 190.827 117.934 196.225 111.331"/>
  <path style="fill: none; stroke: rgb(0, 0, 0);" d="M 215.436 71.182 C 216.921 70.207 203.6 63.782 201.108 64.461 C 190.423 67.375 191.936 96.622 196.471 106.602 C 202.115 119.019 219.16 123.549 227.188 108.503"/>
  <path style="fill: none; stroke: rgb(0, 0, 0);" d="M 235.06 94.595 C 229.271 90.509 223.488 93.563 220.39 102.7 C 219.811 104.409 218.308 112.056 219.433 113.841 C 222.757 119.119 229.341 106.712 230.915 103.712 C 231.447 102.696 233.814 99.246 233.148 97.128 C 232.985 96.615 232.191 101.251 232.191 101.686 C 232.191 103.32 231.722 107.289 232.191 108.777 C 233.625 113.333 239.825 103.265 240.483 101.18"/>
  <path style="fill: none; stroke: rgb(0, 0, 0);" d="M 239.632 113.107 C 240.921 104.45 248.761 99.639 251.522 91.401 C 252.671 87.973 256.58 71.154 254.025 68.295 C 250.792 64.677 246.078 73.948 245.264 75.998 C 241.763 84.811 240.884 96.534 240.884 106.105 C 240.884 106.263 240.44 112.61 240.884 113.107 C 244.065 116.666 250.333 109.078 251.522 107.506 C 254.551 103.501 257.32 98.77 260.282 94.903"/>
  <path style="fill: none; stroke: rgb(0, 0, 0);" d="M 256.808 112.869 C 258.097 104.213 265.937 99.402 268.698 91.164 C 269.847 87.735 273.756 70.917 271.201 68.057 C 267.968 64.439 263.254 73.71 262.44 75.76 C 258.939 84.573 258.06 96.296 258.06 105.867 C 258.06 106.025 257.616 112.372 258.06 112.869 C 261.241 116.428 267.509 108.84 268.698 107.268 C 271.727 103.263 274.496 98.532 277.458 94.665"/>
  <path style="fill: none; stroke: rgb(0, 0, 0);" d="M 286.233 93.26 C 280.301 89.174 274.376 92.228 271.201 101.365 C 270.608 103.074 269.068 110.721 270.221 112.506 C 273.627 117.784 280.373 105.377 281.986 102.377 C 282.531 101.361 284.956 97.911 284.274 95.793 C 284.107 95.28 283.293 99.916 283.293 100.351 C 283.293 101.985 282.813 105.954 283.293 107.442 C 284.763 111.998 291.116 101.93 291.789 99.845"/>
</svg>
