<?xml version="1.0" encoding="utf-8"?>
<svg viewBox="266.7924 209.302 2134.6025 793.8089" width="2134.6025" height="793.8089" xmlns="http://www.w3.org/2000/svg">
  <g>
    <path style="fill: none; stroke: green; stroke-width: 20;" d="M 1108.929 209.302 C 992.973 315.326 805.271 365.667 664.296 431.021 C 619.527 451.775 556.764 460.967 521.257 497.669 C 510.219 509.078 544.308 520.71 559.009 526.702 C 608.903 547.04 666.554 543.553 717.72 560.579 C 817.602 593.818 828.522 693.157 781.036 774.681 C 715.2 887.707 509.521 921.579 398.402 963.919 C 387.695 967.999 274.856 1012.594 267.051 1001.277 C 263.969 996.81 289.362 970.992 294.104 966.181 C 326.866 932.945 365.281 906.915 401.798 878.297 C 563.13 751.859 722.051 611.768 898.957 508.686 C 960.331 472.923 1017.034 430.772 1071.559 385.749 C 1079.982 378.794 1165.077 294.211 1142.143 331.968"/>
    <path style="fill: none; stroke: green; stroke-width: 20;" d="M 795.435 913.34 C 795.435 787.433 916.049 630.628 996.235 540.972 C 1052.763 477.767 1145.833 412.133 1145.833 318.658"/>
    <path style="fill: none; stroke: green; stroke-width: 20;" d="M 844.92 673.045 C 931.794 605.399 1000.488 594.379 1104.301 594.379"/>
    <path style="fill: none; stroke: green; stroke-width: 20;" d="M 900 764.911 C 929.303 764.911 1092.066 731.251 1074.007 676.809 C 1066.404 653.888 1005.249 699.53 1000.474 704.306 C 957.548 747.232 905.71 810.474 918.197 875.113 C 930.658 939.617 1048.409 861.908 1048.409 831.104"/>
    <path d="M 1012.551 814.777 C 1032.421 807.522 1097.625 728.617 1106.962 728.406 C 1108.676 728.367 1091.124 758.942 1089.787 763.087 C 1082.553 785.512 1076.863 824.749 1082.315 848.343 C 1086.998 868.613 1126.961 851.158 1134.47 844.6 C 1175.477 808.792 1193.359 760.84 1227.13 724.177" style="fill: none; stroke: green; stroke-width: 20;' d='M 1063.191 796.733 C 1083.061 789.478 1148.265 710.573 1157.602 710.362 C 1159.316 710.323 1141.764 740.898 1140.427 745.043 C 1133.193 767.468 1127.503 806.705 1132.955 830.299 C 1137.638 850.569 1177.601 833.114 1185.11 826.556 C 1226.117 790.748 1243.999 742.796 1277.77 706.133"/>
    <path style="fill: none; stroke: green; stroke-width: 20;" d="M 1226.341 733.051 C 1219.176 745.11 1213.703 756.112 1207.821 768.605 C 1166.717 855.904 1299.952 775.253 1322.12 751.79 C 1327.933 745.638 1341.872 711.339 1333.602 706.926 C 1287.834 682.502 1209.579 815.895 1249.089 834.126 C 1267.011 842.397 1294.653 839.248 1314.275 839.068 C 1330.138 838.923 1348.719 825.779 1362.57 818.938"/>
    <path style="fill: none; stroke: green; stroke-width: 20;" d="M 1723.69 412.352 C 1719.86 435.768 1715.687 460.755 1715.687 484.555 C 1715.687 659.869 1870.481 495.321 1881.395 404.971 C 1884.218 381.598 1901.526 327.827 1869.657 321.443 C 1794.513 306.389 1756.92 355.156 1706.321 400.603 C 1603.97 492.532 1491.226 597.727 1430.678 724.545 C 1412.185 763.28 1341.925 868.579 1383.357 910.198 C 1422.122 949.138 1494.802 925.09 1534.695 905.747 C 1657.496 846.207 1716.547 723.344 1808.404 631.485"/>
    <path style="fill: none; stroke: green; stroke-width: 20;" d="M 1807.903 673.045 C 1758.622 703.267 1728.431 743.69 1700.566 793.934 C 1696.715 800.879 1680.024 849.222 1690.779 853.075 C 1714.048 861.411 1787.026 763.553 1790.548 740.881 C 1791.574 734.282 1784.917 753.07 1781.098 758.548 C 1777.799 763.28 1751.15 806.798 1766.18 812.498 C 1803.272 826.564 1868.33 808.769 1888.616 779.105"/>
    <path style="fill: none; stroke: green; stroke-width: 20;" d="M 1800 804.855 C 1893.996 778.892 2002.929 716.517 2066.432 637.905 C 2084.759 615.217 2159.635 482.357 2084.848 489.358 C 2057.226 491.944 2023.636 530.978 2005.503 549.111 C 1951.857 602.755 1814.071 764.25 1868.18 852.885 C 1908.412 918.787 2016.459 816.294 2042.88 789.863"/>
    <path style="fill: none; stroke: green; stroke-width: 20;" d="M 2060.549 796.03 C 2130.06 730.264 2216.277 675.777 2291.662 540.413 C 2317.938 493.231 2277.182 480.987 2237.803 493.918 C 2197.034 507.304 2161.367 545.216 2136.027 579.719 C 2090.602 641.571 2054.663 749.423 2070.55 826.363 C 2083.532 889.235 2238.323 843.429 2266.629 813.887"/>
    <path style="fill: none; stroke: green; stroke-width: 20;" d="M 2320.682 673.045 C 2271.401 703.267 2241.21 743.69 2213.345 793.934 C 2209.494 800.879 2192.803 849.222 2203.558 853.075 C 2226.827 861.411 2299.805 763.553 2303.327 740.881 C 2304.353 734.282 2297.696 753.07 2293.877 758.548 C 2290.578 763.28 2263.929 806.798 2278.959 812.498 C 2316.051 826.564 2381.109 808.769 2401.395 779.105"/>
  </g>
</svg>
